<svg width="2178" height="402" viewBox="0 0 2178 402" fill="none" xmlns="http://www.w3.org/2000/svg">
<path d="M17.92 323V92.92H203.52C211.627 92.92 219.093 94.9467 225.92 99C232.747 103.053 238.187 108.493 242.24 115.32C246.293 121.933 248.32 129.293 248.32 137.4V199.48C248.32 207.587 246.293 215.053 242.24 221.88C238.187 228.707 232.747 234.147 225.92 238.2C219.093 242.04 211.627 243.96 203.52 243.96L60.16 244.28V323H17.92ZM64 201.4H201.6C202.667 201.4 203.627 201.08 204.48 200.44C205.333 199.8 205.76 198.947 205.76 197.88V139C205.76 137.933 205.333 137.08 204.48 136.44C203.627 135.587 202.667 135.16 201.6 135.16H64C62.9333 135.16 61.9733 135.587 61.12 136.44C60.48 137.08 60.16 137.933 60.16 139V197.88C60.16 198.947 60.48 199.8 61.12 200.44C61.9733 201.08 62.9333 201.4 64 201.4ZM313.605 323C305.498 323 298.138 320.973 291.525 316.92C284.912 312.867 279.578 307.533 275.525 300.92C271.472 294.307 269.445 286.947 269.445 278.84V181.56C269.445 173.453 271.472 166.093 275.525 159.48C279.578 152.867 284.912 147.533 291.525 143.48C298.138 139.427 305.498 137.4 313.605 137.4H413.765C421.872 137.4 429.232 139.427 435.845 143.48C442.672 147.533 448.005 152.867 451.845 159.48C455.898 166.093 457.925 173.453 457.925 181.56V278.84C457.925 286.947 455.898 294.307 451.845 300.92C448.005 307.533 442.778 312.867 436.165 316.92C429.552 320.973 422.085 323 413.765 323H313.605ZM315.205 281.08H412.165C413.232 281.08 414.085 280.76 414.725 280.12C415.578 279.267 416.005 278.307 416.005 277.24V183.16C416.005 182.093 415.578 181.24 414.725 180.6C414.085 179.747 413.232 179.32 412.165 179.32H315.205C314.138 179.32 313.178 179.747 312.325 180.6C311.685 181.24 311.365 182.093 311.365 183.16V277.24C311.365 278.307 311.685 279.267 312.325 280.12C313.178 280.76 314.138 281.08 315.205 281.08ZM527.675 323C519.568 323 512.208 320.973 505.595 316.92C498.982 312.867 493.648 307.533 489.595 300.92C485.542 294.307 483.515 286.947 483.515 278.84V76.28H525.755V277.24C525.755 278.307 526.075 279.267 526.715 280.12C527.568 280.76 528.528 281.08 529.595 281.08H565.115V323H527.675ZM620.105 391.8V349.56H731.785C732.852 349.56 733.705 349.133 734.345 348.28C735.198 347.64 735.625 346.787 735.625 345.72V323H633.225C625.332 323 617.972 320.973 611.145 316.92C604.532 312.867 599.198 307.533 595.145 300.92C591.092 294.307 589.065 286.947 589.065 278.84V138.04H630.985V277.24C630.985 278.307 631.305 279.267 631.945 280.12C632.798 280.76 633.758 281.08 634.825 281.08H731.785C732.852 281.08 733.705 280.76 734.345 280.12C735.198 279.267 735.625 278.307 735.625 277.24V138.04H777.545V347.64C777.545 355.747 775.625 363.107 771.785 369.72C767.945 376.547 762.612 381.88 755.785 385.72C749.172 389.773 741.812 391.8 733.705 391.8H620.105ZM813.568 323V92.6H990.208C998.314 92.6 1005.67 94.6267 1012.29 98.68C1019.11 102.733 1024.55 108.173 1028.61 115C1032.66 121.613 1034.69 128.973 1034.69 137.08V182.2C1034.69 184.973 1034.47 187.64 1034.05 190.2C1033.62 192.76 1032.87 195.213 1031.81 197.56C1035.43 202.467 1038.31 207.587 1040.45 212.92C1042.79 218.253 1043.97 223.587 1043.97 228.92V278.52C1043.97 286.627 1041.94 294.093 1037.89 300.92C1033.83 307.533 1028.39 312.867 1021.57 316.92C1014.74 320.973 1007.27 323 999.168 323H813.568ZM859.648 280.44H997.248C998.314 280.44 999.274 280.12 1000.13 279.48C1000.98 278.627 1001.41 277.667 1001.41 276.6V230.84C1001.41 229.773 1000.98 228.92 1000.13 228.28C999.274 227.427 998.314 227 997.248 227H859.648C858.581 227 857.621 227.427 856.768 228.28C856.128 228.92 855.808 229.773 855.808 230.84V276.6C855.808 277.667 856.128 278.627 856.768 279.48C857.621 280.12 858.581 280.44 859.648 280.44ZM859.648 184.44H988.288C989.354 184.44 990.208 184.12 990.848 183.48C991.488 182.627 991.808 181.667 991.808 180.6V139C991.808 137.933 991.488 137.08 990.848 136.44C990.208 135.587 989.354 135.16 988.288 135.16H859.648C858.581 135.16 857.621 135.587 856.768 136.44C856.128 137.08 855.808 137.933 855.808 139V180.6C855.808 181.667 856.128 182.627 856.768 183.48C857.621 184.12 858.581 184.44 859.648 184.44ZM1121.74 323C1113.63 323 1106.27 320.973 1099.66 316.92C1093.04 312.867 1087.71 307.533 1083.66 300.92C1079.6 294.307 1077.58 286.947 1077.58 278.84V76.28H1119.82V277.24C1119.82 278.307 1120.14 279.267 1120.78 280.12C1121.63 280.76 1122.59 281.08 1123.66 281.08H1159.18V323H1121.74ZM1227.68 323C1219.57 323 1212.1 320.973 1205.28 316.92C1198.66 312.867 1193.33 307.533 1189.28 300.92C1185.44 294.307 1183.52 286.947 1183.52 278.84V209.08H1330.08V183.16C1330.08 182.093 1329.65 181.24 1328.8 180.6C1328.16 179.747 1327.3 179.32 1326.24 179.32H1183.52V137.4H1327.84C1335.94 137.4 1343.3 139.427 1349.92 143.48C1356.74 147.533 1362.08 152.867 1365.92 159.48C1369.97 166.093 1372 173.453 1372 181.56V323H1227.68ZM1229.28 281.08H1330.08V246.84H1225.44V277.24C1225.44 278.307 1225.76 279.267 1226.4 280.12C1227.25 280.76 1228.21 281.08 1229.28 281.08ZM1441.71 323C1433.6 323 1426.24 320.973 1419.63 316.92C1413.01 312.867 1407.68 307.533 1403.63 300.92C1399.57 294.307 1397.55 286.947 1397.55 278.84V271.8H1439.47V277.24C1439.47 278.307 1439.79 279.267 1440.43 280.12C1441.28 280.76 1442.24 281.08 1443.31 281.08H1540.27C1541.33 281.08 1542.19 280.76 1542.83 280.12C1543.68 279.267 1544.11 278.307 1544.11 277.24V255.16C1544.11 254.093 1543.68 253.24 1542.83 252.6C1542.19 251.747 1541.33 251.32 1540.27 251.32H1441.71C1433.6 251.32 1426.24 249.293 1419.63 245.24C1413.01 241.187 1407.68 235.853 1403.63 229.24C1399.57 222.627 1397.55 215.267 1397.55 207.16V181.56C1397.55 173.453 1399.57 166.093 1403.63 159.48C1407.68 152.867 1413.01 147.533 1419.63 143.48C1426.24 139.427 1433.6 137.4 1441.71 137.4H1541.87C1550.19 137.4 1557.65 139.427 1564.27 143.48C1570.88 147.533 1576.21 152.867 1580.27 159.48C1584.32 166.093 1586.35 173.453 1586.35 181.56V188.6H1544.11V183.16C1544.11 182.093 1543.68 181.24 1542.83 180.6C1542.19 179.747 1541.33 179.32 1540.27 179.32H1443.31C1442.24 179.32 1441.28 179.747 1440.43 180.6C1439.79 181.24 1439.47 182.093 1439.47 183.16V205.24C1439.47 206.307 1439.79 207.267 1440.43 208.12C1441.28 208.76 1442.24 209.08 1443.31 209.08H1541.87C1550.19 209.08 1557.65 211.107 1564.27 215.16C1570.88 219.213 1576.21 224.547 1580.27 231.16C1584.32 237.773 1586.35 245.133 1586.35 253.24V278.84C1586.35 286.947 1584.32 294.307 1580.27 300.92C1576.21 307.533 1570.88 312.867 1564.27 316.92C1557.65 320.973 1550.19 323 1541.87 323H1441.71ZM1662.68 323C1654.58 323 1647.22 320.973 1640.6 316.92C1633.99 312.867 1628.66 307.533 1624.6 300.92C1620.55 294.307 1618.52 286.947 1618.52 278.84V80.44H1660.44V137.4H1732.76V179.32H1660.44V277.24C1660.44 278.307 1660.76 279.267 1661.4 280.12C1662.26 280.76 1663.22 281.08 1664.28 281.08H1732.76V323H1662.68Z" fill="#2BA2AA"/>
<path d="M1976.92 139.011L1814.01 200.128L1919.99 39.8422L1976.92 139.011Z" fill="#2BA2AA"/>
<path d="M2025.63 193.606L1997.13 187.281L2026.71 174.449L2025.63 193.606Z" fill="#2BA2AA"/>
<path d="M2049.36 181.342L2028.58 151.35L2066.6 164.684L2049.36 181.342Z" fill="#2BA2AA"/>
<path d="M2079.78 193.877L2086.54 137.263L2117.22 192.255L2079.78 193.877Z" fill="#2BA2AA"/>
<path d="M2102.28 222.906L2167.09 193.266L2128.38 261.795L2102.28 222.906Z" fill="#2BA2AA"/>
<path d="M2089.69 268.186L2167.49 311.583L2069.8 323.249L2089.69 268.186Z" fill="#2BA2AA"/>
<path d="M2034.2 280.335L2033.81 391.688L1961.94 291.897L2034.2 280.335Z" fill="#2BA2AA"/>
<path d="M1977.35 238.141L1872.43 329.606L1906.89 179.798L1977.35 238.141Z" fill="#2BA2AA"/>
</svg>
